<mxfile host="app.diagrams.net" modified="2022-09-09T02:32:40.403Z" agent="5.0 (Windows NT 10.0; Win64; x64) AppleWebKit/537.36 (KHTML, like Gecko) Chrome/105.0.0.0 Safari/537.36" etag="g07SzeXoc39zH-siAfQl" version="20.3.0" type="github">
  <diagram id="JYpKnm3hOoByf-iaP71F" name="Page-1">
    <mxGraphModel dx="2889" dy="786" grid="1" gridSize="10" guides="1" tooltips="1" connect="1" arrows="1" fold="1" page="1" pageScale="1" pageWidth="827" pageHeight="1169" math="0" shadow="0">
      <root>
        <mxCell id="0" />
        <mxCell id="1" parent="0" />
        <mxCell id="_Lm2W7iEWBs3c_BX565x-24" style="edgeStyle=orthogonalEdgeStyle;rounded=0;orthogonalLoop=1;jettySize=auto;html=1;exitX=0;exitY=1;exitDx=0;exitDy=0;entryX=0.49;entryY=-0.05;entryDx=0;entryDy=0;entryPerimeter=0;" parent="1" source="_Lm2W7iEWBs3c_BX565x-7" target="_Lm2W7iEWBs3c_BX565x-3" edge="1">
          <mxGeometry relative="1" as="geometry" />
        </mxCell>
        <mxCell id="_Lm2W7iEWBs3c_BX565x-25" style="edgeStyle=orthogonalEdgeStyle;rounded=0;orthogonalLoop=1;jettySize=auto;html=1;exitX=0.25;exitY=0;exitDx=0;exitDy=0;entryX=0;entryY=0.5;entryDx=0;entryDy=0;" parent="1" source="_Lm2W7iEWBs3c_BX565x-7" target="_Lm2W7iEWBs3c_BX565x-8" edge="1">
          <mxGeometry relative="1" as="geometry">
            <Array as="points">
              <mxPoint x="320" y="560" />
              <mxPoint x="320" y="394" />
            </Array>
          </mxGeometry>
        </mxCell>
        <mxCell id="_Lm2W7iEWBs3c_BX565x-27" style="edgeStyle=orthogonalEdgeStyle;rounded=0;orthogonalLoop=1;jettySize=auto;html=1;exitX=0;exitY=0.75;exitDx=0;exitDy=0;entryX=0.5;entryY=1;entryDx=0;entryDy=0;" parent="1" source="_Lm2W7iEWBs3c_BX565x-7" target="_Lm2W7iEWBs3c_BX565x-10" edge="1">
          <mxGeometry relative="1" as="geometry">
            <mxPoint x="-100" y="860" as="targetPoint" />
            <Array as="points">
              <mxPoint x="-80" y="661" />
              <mxPoint x="-80" y="860" />
              <mxPoint x="-255" y="860" />
            </Array>
          </mxGeometry>
        </mxCell>
        <mxCell id="_Lm2W7iEWBs3c_BX565x-28" style="edgeStyle=orthogonalEdgeStyle;rounded=0;orthogonalLoop=1;jettySize=auto;html=1;exitX=0;exitY=0.5;exitDx=0;exitDy=0;" parent="1" source="_Lm2W7iEWBs3c_BX565x-7" target="_Lm2W7iEWBs3c_BX565x-1" edge="1">
          <mxGeometry relative="1" as="geometry">
            <mxPoint x="-150" y="450" as="targetPoint" />
            <Array as="points">
              <mxPoint x="70" y="628" />
              <mxPoint x="70" y="460" />
            </Array>
          </mxGeometry>
        </mxCell>
        <mxCell id="_Lm2W7iEWBs3c_BX565x-33" style="edgeStyle=orthogonalEdgeStyle;rounded=0;orthogonalLoop=1;jettySize=auto;html=1;exitX=0;exitY=0;exitDx=0;exitDy=0;" parent="1" source="_Lm2W7iEWBs3c_BX565x-7" target="_Lm2W7iEWBs3c_BX565x-16" edge="1">
          <mxGeometry relative="1" as="geometry">
            <mxPoint x="300.47058823529414" y="280" as="targetPoint" />
            <Array as="points">
              <mxPoint x="300" y="280" />
            </Array>
          </mxGeometry>
        </mxCell>
        <mxCell id="_Lm2W7iEWBs3c_BX565x-34" style="edgeStyle=orthogonalEdgeStyle;rounded=0;orthogonalLoop=1;jettySize=auto;html=1;exitX=0;exitY=0.25;exitDx=0;exitDy=0;" parent="1" source="_Lm2W7iEWBs3c_BX565x-7" target="_Lm2W7iEWBs3c_BX565x-2" edge="1">
          <mxGeometry relative="1" as="geometry">
            <mxPoint x="130" y="320" as="targetPoint" />
            <Array as="points">
              <mxPoint x="150" y="594" />
              <mxPoint x="150" y="320" />
            </Array>
          </mxGeometry>
        </mxCell>
        <mxCell id="_Lm2W7iEWBs3c_BX565x-7" value="" style="image;html=1;image=img/lib/clip_art/networking/Switch_128x128.png" parent="1" vertex="1">
          <mxGeometry x="300" y="560" width="150" height="135" as="geometry" />
        </mxCell>
        <mxCell id="_Lm2W7iEWBs3c_BX565x-12" value="" style="verticalLabelPosition=bottom;html=1;verticalAlign=top;align=center;shape=mxgraph.floorplan.table;" parent="1" vertex="1">
          <mxGeometry x="124" y="780" width="170" height="100" as="geometry" />
        </mxCell>
        <mxCell id="_Lm2W7iEWBs3c_BX565x-3" value="" style="points=[];aspect=fixed;html=1;align=center;shadow=0;dashed=0;image;image=img/lib/allied_telesis/computer_and_terminals/Personal_Computer_with_Server.svg;direction=east;" parent="1" vertex="1">
          <mxGeometry x="159" y="760" width="100" height="100" as="geometry" />
        </mxCell>
        <mxCell id="_Lm2W7iEWBs3c_BX565x-17" style="edgeStyle=orthogonalEdgeStyle;rounded=0;orthogonalLoop=1;jettySize=auto;html=1;exitX=0.5;exitY=0;exitDx=0;exitDy=0;" parent="1" source="_Lm2W7iEWBs3c_BX565x-6" target="_Lm2W7iEWBs3c_BX565x-7" edge="1">
          <mxGeometry relative="1" as="geometry">
            <Array as="points">
              <mxPoint x="382" y="720" />
              <mxPoint x="382" y="720" />
            </Array>
          </mxGeometry>
        </mxCell>
        <mxCell id="_Lm2W7iEWBs3c_BX565x-6" value="" style="image;html=1;image=img/lib/clip_art/networking/Router_128x128.png" parent="1" vertex="1">
          <mxGeometry x="322" y="780" width="120" height="100" as="geometry" />
        </mxCell>
        <mxCell id="_Lm2W7iEWBs3c_BX565x-14" value="" style="verticalLabelPosition=bottom;html=1;verticalAlign=top;align=center;shape=mxgraph.floorplan.table;rotation=90;" parent="1" vertex="1">
          <mxGeometry x="251.25" y="286.25" width="287.5" height="110" as="geometry" />
        </mxCell>
        <mxCell id="_Lm2W7iEWBs3c_BX565x-8" value="" style="image;html=1;image=img/lib/clip_art/computers/Printer_128x128.png" parent="1" vertex="1">
          <mxGeometry x="335.5" y="340" width="125" height="108" as="geometry" />
        </mxCell>
        <mxCell id="_Lm2W7iEWBs3c_BX565x-15" value="" style="verticalLabelPosition=bottom;html=1;verticalAlign=top;align=center;shape=mxgraph.floorplan.table;rotation=90;" parent="1" vertex="1">
          <mxGeometry x="-470" y="393.15" width="427.08" height="136.85" as="geometry" />
        </mxCell>
        <mxCell id="_Lm2W7iEWBs3c_BX565x-1" value="" style="points=[];aspect=fixed;html=1;align=center;shadow=0;dashed=0;image;image=img/lib/allied_telesis/computer_and_terminals/Server_Desktop.svg;" parent="1" vertex="1">
          <mxGeometry x="-308.4" y="393.15" width="102.56" height="130" as="geometry" />
        </mxCell>
        <mxCell id="_Lm2W7iEWBs3c_BX565x-2" value="" style="points=[];aspect=fixed;html=1;align=center;shadow=0;dashed=0;image;image=img/lib/allied_telesis/computer_and_terminals/Server_Desktop.svg;" parent="1" vertex="1">
          <mxGeometry x="-306.28" y="250" width="100.44" height="127.32" as="geometry" />
        </mxCell>
        <mxCell id="_Lm2W7iEWBs3c_BX565x-10" value="" style="image;html=1;image=img/lib/clip_art/computers/Printer_Commercial_128x128.png" parent="1" vertex="1">
          <mxGeometry x="-340" y="540" width="170" height="130" as="geometry" />
        </mxCell>
        <mxCell id="_Lm2W7iEWBs3c_BX565x-16" value="" style="shape=image;html=1;verticalAlign=top;verticalLabelPosition=bottom;labelBackgroundColor=#ffffff;imageAspect=0;aspect=fixed;image=https://cdn1.iconfinder.com/data/icons/electronics-outline-24/24/boombox_cassette_player_cassette_recorder_radio_stereo_stereo-128.png" parent="1" vertex="1">
          <mxGeometry x="335.5" y="209" width="119" height="119" as="geometry" />
        </mxCell>
        <mxCell id="_Lm2W7iEWBs3c_BX565x-35" value="" style="endArrow=classic;html=1;rounded=0;" parent="1" source="_Lm2W7iEWBs3c_BX565x-3" target="_Lm2W7iEWBs3c_BX565x-2" edge="1">
          <mxGeometry relative="1" as="geometry">
            <mxPoint x="130" y="770" as="sourcePoint" />
            <mxPoint x="150" y="530" as="targetPoint" />
            <Array as="points">
              <mxPoint x="-20" y="570" />
            </Array>
          </mxGeometry>
        </mxCell>
        <mxCell id="_Lm2W7iEWBs3c_BX565x-36" value="Telnet" style="edgeLabel;resizable=0;html=1;align=center;verticalAlign=middle;fontSize=21;" parent="_Lm2W7iEWBs3c_BX565x-35" connectable="0" vertex="1">
          <mxGeometry relative="1" as="geometry">
            <mxPoint x="4" y="4" as="offset" />
          </mxGeometry>
        </mxCell>
        <mxCell id="_Lm2W7iEWBs3c_BX565x-37" value="Unix Server" style="rounded=0;whiteSpace=wrap;html=1;fontFamily=Helvetica;fontSize=21;" parent="1" vertex="1">
          <mxGeometry x="-460" y="268" width="120" height="60" as="geometry" />
        </mxCell>
        <mxCell id="_Lm2W7iEWBs3c_BX565x-38" value="Linux Server" style="rounded=0;whiteSpace=wrap;html=1;fontFamily=Helvetica;fontSize=21;" parent="1" vertex="1">
          <mxGeometry x="-460" y="412" width="120" height="60" as="geometry" />
        </mxCell>
        <mxCell id="_Lm2W7iEWBs3c_BX565x-39" value="Walters Desktop" style="rounded=0;whiteSpace=wrap;html=1;fontFamily=Helvetica;fontSize=21;" parent="1" vertex="1">
          <mxGeometry x="149" y="900" width="120" height="60" as="geometry" />
        </mxCell>
        <mxCell id="_Lm2W7iEWBs3c_BX565x-40" value="Router&lt;br&gt;(1 Lan Port)" style="rounded=0;whiteSpace=wrap;html=1;fontFamily=Helvetica;fontSize=21;" parent="1" vertex="1">
          <mxGeometry x="343" y="900" width="120" height="60" as="geometry" />
        </mxCell>
        <mxCell id="_Lm2W7iEWBs3c_BX565x-41" value="Switch" style="rounded=0;whiteSpace=wrap;html=1;fontFamily=Helvetica;fontSize=21;" parent="1" vertex="1">
          <mxGeometry x="480" y="598" width="120" height="60" as="geometry" />
        </mxCell>
        <mxCell id="_Lm2W7iEWBs3c_BX565x-42" value="Hp Printer" style="rounded=0;whiteSpace=wrap;html=1;fontFamily=Helvetica;fontSize=21;" parent="1" vertex="1">
          <mxGeometry x="500" y="377" width="120" height="60" as="geometry" />
        </mxCell>
        <mxCell id="_Lm2W7iEWBs3c_BX565x-43" value="Commercial Printer" style="rounded=0;whiteSpace=wrap;html=1;fontFamily=Helvetica;fontSize=21;" parent="1" vertex="1">
          <mxGeometry x="-470" y="575" width="120" height="60" as="geometry" />
        </mxCell>
        <mxCell id="_Lm2W7iEWBs3c_BX565x-44" value="Stereo" style="rounded=0;whiteSpace=wrap;html=1;fontFamily=Helvetica;fontSize=21;" parent="1" vertex="1">
          <mxGeometry x="490" y="238.5" width="120" height="60" as="geometry" />
        </mxCell>
      </root>
    </mxGraphModel>
  </diagram>
</mxfile>
